<?xml version="1.0" encoding="iso-8859-1"?>
<!-- Generator: Adobe Illustrator 19.0.0, SVG Export Plug-In . SVG Version: 6.00 Build 0)  -->
<svg version="1.1" id="Capa_1" xmlns="http://www.w3.org/2000/svg" xmlns:xlink="http://www.w3.org/1999/xlink" x="0px" y="0px"
	 viewBox="0 0 512 512" style="enable-background:new 0 0 512 512;" xml:space="preserve">
<g>
	<g>
		<path d="M490.624,208.127l-144-128c-26.24-23.264-66.784-21.024-90.432,5.216c-23.488,26.464-21.152,67.04,5.152,90.4
			l18.208,16.192H64c-35.296,0-64,28.704-64,64s28.704,64,64,64h215.552l-18.176,16.192c-26.336,23.36-28.672,63.936-5.056,90.592
			c12.288,13.472,29.664,21.216,47.68,21.216c15.84,0,30.976-5.76,42.624-16.192L490.56,303.807
			c13.632-11.936,21.44-29.376,21.44-47.872C512,237.439,504.192,219.999,490.624,208.127z M469.376,279.839L325.344,407.871
			c-12.416,11.104-33.728,10.016-45.216-2.528c-11.776-13.312-10.656-33.6,2.528-45.28l49.6-44.16
			c4.96-4.416,6.656-11.424,4.32-17.632c-2.336-6.208-8.352-10.336-14.976-10.336H64c-17.632,0-32-14.368-32-32
			c0-17.632,14.368-32,32-32h257.6c6.656,0,12.608-4.096,14.944-10.304s0.64-13.216-4.32-17.632l-49.6-44.16
			c-13.152-11.712-14.272-32-2.592-45.184c11.84-13.12,32.16-14.304,45.344-2.624L469.44,232.095
			c6.72,5.888,10.56,14.56,10.56,23.84C480,265.215,476.16,273.887,469.376,279.839z"/>
	</g>
</g>
<g>
</g>
<g>
</g>
<g>
</g>
<g>
</g>
<g>
</g>
<g>
</g>
<g>
</g>
<g>
</g>
<g>
</g>
<g>
</g>
<g>
</g>
<g>
</g>
<g>
</g>
<g>
</g>
<g>
</g>
</svg>
